<svg xmlns:inkscape="http://www.inkscape.org/namespaces/inkscape" xmlns:sodipodi="http://sodipodi.sourceforge.net/DTD/sodipodi-0.dtd" xmlns="http://www.w3.org/2000/svg" xmlns:svg="http://www.w3.org/2000/svg" xmlns:rdf="http://www.w3.org/1999/02/22-rdf-syntax-ns#" xmlns:cc="http://creativecommons.org/ns#" xmlns:dc="http://purl.org/dc/elements/1.1/" viewBox="0 0 16.933333 21.1666675" version="1.1" x="0px" y="0px"><g><path style="color:#000000;paint-order:fill markers stroke;" d="m 5.4536718,0.79374732 c -0.42603,0 -0.7792805,0.34963308 -0.7792805,0.77566318 v 0.050643 H 2.9928402 c -0.5493092,0 -0.999939,0.4489674 -0.999939,0.9978719 V 13.256552 c 0,0.548907 0.4506309,0.998389 0.999939,0.998389 h 5.5257607 a 0.26458299,0.26458299 0 0 0 0.068213,-0.01033 c 0.5386056,1.120082 1.6873341,1.894975 3.0137691,1.894975 1.841244,0 3.339849,-1.493395 3.339849,-3.33003 0,-1.627772 -1.177428,-2.985844 -2.726965,-3.2737018 V 2.6179254 c 0,-0.5489058 -0.450633,-0.9978719 -0.99994,-0.9978719 H 9.5319756 v -0.050643 c 0,-0.4260301 -0.3532504,-0.77566318 -0.7792804,-0.77566318 z m 0,0.52916668 h 3.2990234 c 0.142952,0 0.2501138,0.1054009 0.2501138,0.2464965 v 0.6289022 c 0,0.1410956 -0.1071618,0.2459799 -0.2501138,0.2459799 H 5.4536718 c -0.1429531,0 -0.2495971,-0.1048843 -0.2495971,-0.2459799 V 1.5694105 c 0,-0.1410956 0.106644,-0.2464965 0.2495971,-0.2464965 z M 2.9928402,2.1471531 h 1.6815511 v 0.05116 c 0,0.4260302 0.3532505,0.7751466 0.7792805,0.7751466 h 3.2990234 c 0.42603,0 0.7792804,-0.3491164 0.7792804,-0.7751466 v -0.05116 h 1.6815514 c 0.266229,0 0.470773,0.2068028 0.470773,0.4707723 v 6.8626301 c -0.02791,-6.905e-4 -0.05564,-0.00103 -0.08372,-0.00103 -1.8412432,0 -3.3398476,1.4933955 -3.3398476,3.3300295 0,0.317558 0.044531,0.624613 0.1281575,0.915707 H 2.9928402 c -0.2662352,0 -0.4707724,-0.20473 -0.4707724,-0.468706 V 2.6179254 c 0,-0.2639708 0.2045383,-0.4707723 0.4707724,-0.4707723 z M 5.9771541,4.1506484 A 0.26458349,0.26458349 0 0 0 5.7802668,4.2488335 L 4.8113338,5.4518608 4.3074886,4.9304456 a 0.26458349,0.26458349 0 0 0 -0.3731038,-0.00775 0.26458349,0.26458349 0 0 0 -0.00775,0.375171 l 0.7126164,0.7379381 a 0.26460995,0.26460995 0 0 0 0.396875,-0.01757 L 6.1921281,4.5811131 A 0.26458349,0.26458349 0 0 0 6.1533706,4.2100762 0.26458349,0.26458349 0 0 0 5.9771541,4.1506484 Z M 7.3445123,5.2022637 A 0.26458349,0.26458349 0 0 0 7.0788955,5.4658136 0.26458349,0.26458349 0 0 0 7.3445123,5.7314304 H 10.088532 A 0.26458349,0.26458349 0 0 0 10.352597,5.4658136 0.26458349,0.26458349 0 0 0 10.088532,5.2022637 Z M 5.9771541,7.2093762 A 0.26458349,0.26458349 0 0 0 5.7802668,7.3075615 L 4.8113338,8.5105888 4.3074886,7.9891736 a 0.26458349,0.26458349 0 0 0 -0.3731038,-0.00568 0.26458349,0.26458349 0 0 0 -0.00775,0.3731038 l 0.7126164,0.737935 a 0.26460995,0.26460995 0 0 0 0.396875,-0.01757 L 6.1921281,7.6393241 A 0.26458349,0.26458349 0 0 0 6.1533706,7.2682875 0.26458349,0.26458349 0 0 0 5.9771541,7.2093762 Z M 7.3445123,8.260475 A 0.26458349,0.26458349 0 0 0 7.0788955,8.5245416 0.26458349,0.26458349 0 0 0 7.3445123,8.7901584 H 10.088532 A 0.26458349,0.26458349 0 0 0 10.352597,8.5245416 0.26458349,0.26458349 0 0 0 10.088532,8.260475 Z m 4.2560707,1.748213 c 1.556192,0 2.812233,1.251149 2.812233,2.800863 0,1.549715 -1.256041,2.800863 -2.812233,2.800863 -1.556192,0 -2.8106808,-1.251148 -2.8106808,-2.800863 0,-1.549714 1.2544888,-2.800863 2.8106808,-2.800863 z m -5.6234289,0.259933 a 0.26458349,0.26458349 0 0 0 -0.1968873,0.09922 L 4.8113338,11.571385 4.3074886,11.04997 a 0.26458349,0.26458349 0 0 0 -0.3731038,-0.0083 0.26458349,0.26458349 0 0 0 -0.00775,0.375171 l 0.7126164,0.736419 a 0.26460995,0.26460995 0 0 0 0.396875,-0.01757 l 1.1560019,-1.435572 a 0.26458349,0.26458349 0 0 0 -0.038758,-0.373103 0.26458349,0.26458349 0 0 0 -0.1762165,-0.05839 z m 6.6078639,1.335836 a 0.26458399,0.26458399 0 0 0 -0.04134,0.0021 0.26458399,0.26458399 0 0 0 -0.175699,0.09767 l -1.277441,1.616921 -0.693499,-0.730188 a 0.26458399,0.26458399 0 0 0 -0.372587,-0.01189 0.26458399,0.26458399 0 0 0 -0.0098,0.375171 l 0.902272,0.952914 a 0.26461045,0.26461045 0 0 0 0.398423,-0.01757 l 1.466577,-1.857251 a 0.26458399,0.26458399 0 0 0 -0.04289,-0.371037 0.26458399,0.26458399 0 0 0 -0.153996,-0.05684 z" fill="#000000" fill-rule="evenodd" stroke-width="1" stroke-linecap="round" stroke-linejoin="round"/></g><text x="0" y="31.933334" fill="#000000" font-size="5px" font-weight="bold" font-family="'Helvetica Neue', Helvetica, Arial-Unicode, Arial, Sans-serif">Created by Alzam</text><text x="0" y="36.933334" fill="#000000" font-size="5px" font-weight="bold" font-family="'Helvetica Neue', Helvetica, Arial-Unicode, Arial, Sans-serif">from the Noun Project</text></svg>