
        <svg xmlns="http://www.w3.org/2000/svg" xmlns:xlink="http://www.w3.org/1999/xlink" version="1.1" width="3187.5" height="1125.0000822133031" viewBox="0 0 3187.5 1125.0000822133031">
			
			<g transform="scale(9.375) translate(10, 10)">
				<defs id="SvgjsDefs1026"><linearGradient id="SvgjsLinearGradient1033"><stop id="SvgjsStop1034" stop-color="#fbb040" offset="0"/><stop id="SvgjsStop1035" stop-color="#f9ed32" offset="1"/></linearGradient></defs><g id="SvgjsG1027" featureKey="symbolFeature-0" transform="matrix(1.1494252873563218,0,0,1.1494252873563218,-7.471266560170842,-7.471264367816092)" fill="#fff"><defs xmlns="http://www.w3.org/2000/svg"/><title xmlns="http://www.w3.org/2000/svg">Outsourced Workforce</title><path xmlns="http://www.w3.org/2000/svg" class="cls-1" d="M50,6.5A16.5,16.5,0,1,0,66.5,23,16.52,16.52,0,0,0,50,6.5Zm3.81,29.65V24.55l.3,0L55,31.79a1.31,1.31,0,0,0,1.51,1,1.25,1.25,0,0,0,1.27-1.23l-1.13-9.9v0a3,3,0,0,0-3-2.57H46.46a3,3,0,0,0-3,2.35,1,1,0,0,0-.06.25l-1.13,9.9a1.25,1.25,0,0,0,1.27,1.23,1.31,1.31,0,0,0,1.51-1l.85-7.27.3,0V36.15a13.7,13.7,0,1,1,7.62,0Zm-.64-21A3.16,3.16,0,1,1,50,12,3.15,3.15,0,0,1,53.17,15.14ZM77,33.5A16.5,16.5,0,1,0,93.5,50,16.52,16.52,0,0,0,77,33.5Zm3.81,29.65V51.55l.3,0L82,58.79a1.31,1.31,0,0,0,1.51,1,1.25,1.25,0,0,0,1.27-1.23l-1.13-9.9v0a3,3,0,0,0-3-2.57H73.46a3,3,0,0,0-3,2.35,1,1,0,0,0-.06.25l-1.13,9.9a1.25,1.25,0,0,0,1.27,1.23,1.31,1.31,0,0,0,1.51-1l.85-7.27.3,0V63.15a13.7,13.7,0,1,1,7.62,0Zm-.64-21A3.16,3.16,0,1,1,77,39,3.15,3.15,0,0,1,80.17,42.14ZM50,60.5A16.5,16.5,0,1,0,66.5,77,16.52,16.52,0,0,0,50,60.5Zm3.81,29.65V78.55l.3,0L55,85.79a1.31,1.31,0,0,0,1.51,1,1.25,1.25,0,0,0,1.27-1.23l-1.13-9.9v0a3,3,0,0,0-3-2.57H46.46a3,3,0,0,0-3,2.35,1,1,0,0,0-.06.25l-1.13,9.9a1.25,1.25,0,0,0,1.27,1.23,1.31,1.31,0,0,0,1.51-1l.85-7.27.3,0V90.15a13.7,13.7,0,1,1,7.62,0Zm-.64-21A3.16,3.16,0,1,1,50,66,3.15,3.15,0,0,1,53.17,69.14ZM23,33.5A16.5,16.5,0,1,0,39.5,50,16.52,16.52,0,0,0,23,33.5Zm3.18,6.75H19.82c1-2.52,2.18-4,3.18-4S25.22,37.73,26.18,40.25Zm1.69-3a13.87,13.87,0,0,1,4.73,3H29.14A17.69,17.69,0,0,0,27.87,37.21ZM18.29,48.6a31,31,0,0,1,.7-5.55h8a31,31,0,0,1,.7,5.55Zm9.42,2.8A31,31,0,0,1,27,57H19a31,31,0,0,1-.7-5.55ZM16.86,40.25H13.4a13.87,13.87,0,0,1,4.73-3A17.69,17.69,0,0,0,16.86,40.25Zm-.72,2.8a34.52,34.52,0,0,0-.65,5.55H9.37a13.57,13.57,0,0,1,1.85-5.55Zm-.65,8.35A34.52,34.52,0,0,0,16.14,57H11.22A13.57,13.57,0,0,1,9.37,51.4Zm1.37,8.35a17.69,17.69,0,0,0,1.27,3,13.87,13.87,0,0,1-4.73-3Zm3,0h6.36c-1,2.52-2.18,4-3.18,4S20.78,62.27,19.82,59.75Zm9.32,0H32.6a13.87,13.87,0,0,1-4.73,3A17.69,17.69,0,0,0,29.14,59.75Zm.72-2.8a34.52,34.52,0,0,0,.65-5.55h6.12A13.57,13.57,0,0,1,34.78,57Zm.65-8.35a34.52,34.52,0,0,0-.65-5.55h4.92a13.57,13.57,0,0,1,1.85,5.55Z" style="fill: url(#SvgjsLinearGradient1033);"/></g><g id="SvgjsG1028" featureKey="nameFeature-0" transform="matrix(0.7494496572150654,0,0,0.7494496572150654,118.40517093503954,18.187969935559863)" fill="#fff"><path d="M6.3672 23.984 l0 -7.6953 l6.0742 0 c1.0547 0 1.9596 0.3776 2.7148 1.1328 c0.74219 0.75521 1.1133 1.6667 1.1133 2.7344 c0 1.0547 -0.37109 1.9531 -1.1133 2.6953 c-0.75521 0.75521 -1.6602 1.1328 -2.7148 1.1328 l-6.0742 0 z M15.605 27.578 c1.4583 -0.625 2.6367 -1.6015 3.5352 -2.9297 c0.92447 -1.3542 1.3867 -2.8516 1.3867 -4.4922 c0 -2.2396 -0.79428 -4.1471 -2.3828 -5.7227 c-1.5755 -1.5885 -3.4766 -2.3828 -5.7031 -2.3828 l-10.313 0 l0 27.949 l4.2383 0 l0 -11.777 l4.7852 0 l6.1133 11.777 l4.7852 0 z M24.453175 12.050999999999998 l0 27.949 l14.258 0 l0 -4.2383 l-10.02 0 l0 -7.6563 l7.7344 0 l0 -4.2383 l-7.7344 0 l0 -7.5781 l10.02 0 l0 -4.2383 l-14.258 0 z M66.601625 12.050999999999998 l-9.9609 22.813 l-9.8438 -22.813 l-4.4336 0 l0 27.949 l4.2383 0 l0 -17.637 l7.6367 17.637 l4.7852 0 l7.7734 -17.754 l0 17.754 l4.2383 0 l0 -27.949 l-4.4336 0 z M81.46486875 18.945 c-1.9531 1.9531 -2.9297 4.31 -2.9297 7.0703 s0.97656 5.1172 2.9297 7.0703 s4.31 2.9297 7.0703 2.9297 s5.1172 -0.97656 7.0703 -2.9297 s2.9297 -4.31 2.9297 -7.0703 s-0.97656 -5.1172 -2.9297 -7.0703 s-4.31 -2.9297 -7.0703 -2.9297 s-5.1172 0.97656 -7.0703 2.9297 z M78.45706875 36.0937 c-2.7865 -2.7865 -4.1797 -6.1459 -4.1797 -10.078 s1.3932 -7.2916 4.1797 -10.078 s6.1459 -4.1797 10.078 -4.1797 s7.2916 1.3932 10.078 4.1797 s4.1797 6.1459 4.1797 10.078 s-1.3932 7.2916 -4.1797 10.078 s-6.1459 4.1797 -10.078 4.1797 s-7.2916 -1.3932 -10.078 -4.1797 z M102.539075 12.050999999999998 l0 4.2383 l5.918 0 l0 23.711 l4.2578 0 l0 -23.711 l5.918 0 l0 -4.2383 l-16.094 0 z M122.44145625 12.050999999999998 l0 27.949 l14.258 0 l0 -4.2383 l-10.02 0 l0 -7.6563 l7.7344 0 l0 -4.2383 l-7.7344 0 l0 -7.5781 l10.02 0 l0 -4.2383 l-14.258 0 z M138.92580625 27.48 l12.91 0 l0 -4.2383 l-12.91 0 l0 4.2383 z M154.23829375 12.050999999999998 l0 4.2383 l5.918 0 l0 23.711 l4.2578 0 l0 -23.711 l5.918 0 l0 -4.2383 l-16.094 0 z M174.140675 12.050999999999998 l0 27.949 l14.258 0 l0 -4.2383 l-10.02 0 l0 -7.6563 l7.7344 0 l0 -4.2383 l-7.7344 0 l0 -7.5781 l10.02 0 l0 -4.2383 l-14.258 0 z M208.008125 12.050999999999998 l-17.676 27.949 l5.0195 0 l4.1211 -6.5234 l9.4922 0 l0 6.5234 l4.2578 0 l0 -27.949 l-5.2148 0 z M208.965125 18.477 l0 10.762 l-6.8164 0 z M242.48053125 12.050999999999998 l-9.9609 22.813 l-9.8438 -22.813 l-4.4336 0 l0 27.949 l4.2383 0 l0 -17.637 l7.6367 17.637 l4.7852 0 l7.7734 -17.754 l0 17.754 l4.2383 0 l0 -27.949 l-4.4336 0 z M259.082075 40.25391 c-1.849 -0.078125 -3.5547 -0.57291 -5.1172 -1.4844 c-1.7708 -1.0287 -2.9752 -2.4088 -3.6133 -4.1406 l3.9844 -1.4648 c0.32553 0.85938 0.99609 1.556 2.0117 2.0898 c0.89844 0.45572 1.875 0.70963 2.9297 0.76172 c1.6276 0.065098 2.9752 -0.33203 4.043 -1.1914 c0.89844 -0.72916 1.3737 -1.5625 1.4258 -2.5 c0.078125 -1.7838 -1.7904 -3.2096 -5.6055 -4.2773 c-5.9766 -1.6797 -8.8736 -4.5248 -8.6914 -8.5352 c0.11719 -2.8125 1.3216 -4.9154 3.6133 -6.3086 c1.7448 -1.0677 3.8412 -1.543 6.2891 -1.4258 c2.9688 0.13021 5.3516 1.1654 7.1484 3.1055 l-3.1055 2.8906 c-1.0156 -1.0938 -2.4283 -1.6797 -4.2383 -1.7578 c-1.276 -0.05209 -2.3633 0.11066 -3.2617 0.48826 c-1.4063 0.59896 -2.142 1.6667 -2.207 3.2031 c-0.078125 1.7578 1.7904 3.1705 5.6055 4.2383 c3.4375 0.96354 5.8725 2.3828 7.3047 4.2578 c0.98959 1.3021 1.4518 2.7408 1.3867 4.3164 c-0.10416 2.2135 -1.1068 4.0885 -3.0078 5.625 c-1.7708 1.4193 -3.8932 2.1289 -6.3672 2.1289 c-0.18229 0 -0.35807 -0.0065041 -0.52734 -0.019531 z"/></g><g id="SvgjsG1029" featureKey="sloganFeature-0" transform="matrix(1,0,0,1,120,52.619998931884766)" fill="#fff"><path d="M1.88 18.12 l2.76 0 l0 1.88 l-4.64 0 l0 -14.36 l1.88 0 l0 12.48 z M8.34 20.02 c-1.5 0 -2.7 -1.22 -2.7 -2.7 l0 -8.98 c0 -1.48 1.2 -2.68 2.7 -2.68 c1.48 0 2.68 1.2 2.68 2.68 l0 8.98 c0 1.48 -1.2 2.7 -2.68 2.7 z M8.34 7.5600000000000005 c-0.44 0 -0.78 0.36 -0.78 0.78 l0 8.98 c0 0.44 0.34 0.78 0.78 0.78 c0.42 0 0.78 -0.34 0.78 -0.78 l0 -8.98 c0 -0.42 -0.36 -0.78 -0.78 -0.78 z M14.7 19.96 c-1.48 0 -2.68 -1.2 -2.68 -2.68 l0 -8.88 c0 -1.48 1.2 -2.68 2.68 -2.68 s2.68 1.2 2.68 2.68 l0 0.8 l-1.9 0 l0 -0.8 c0 -0.42 -0.36 -0.78 -0.78 -0.78 s-0.78 0.36 -0.78 0.78 l0 8.88 c0 0.42 0.36 0.78 0.78 0.78 s0.78 -0.36 0.78 -0.78 l0 -1.28 l1.9 0 l0 1.28 c0 1.48 -1.2 2.68 -2.68 2.68 z M23.7 20 l-0.72 -4.94 l-2.02 0 l-0.66 4.94 l-1.92 0 l2.16 -14.3 l2.58 0 l2.5 14.3 l-1.92 0 z M21.22 13.16 l1.48 0 l-0.76 -5.2 z M28.499999999999996 18.12 l2.76 0 l0 1.88 l-4.64 0 l0 -14.36 l1.88 0 l0 12.48 z M40.92 11.52 c0.44 0.44 0.72 1.04 0.72 1.7 l0 4.38 c0 1.32 -1.08 2.4 -2.4 2.4 l-2.96 0 l-0.02 -14.24 l2.64 0 c1.46 0.06 2.32 1.46 2.3 2.78 l-0.02 1.98 c0 0.36 -0.1 0.7 -0.26 1 z M39.239999999999995 18.08 c0.28 0 0.5 -0.22 0.5 -0.48 l-0.02 -4.38 c0 -0.28 -0.22 -0.48 -0.48 -0.48 l-1.06 0 l0 5.34 l1.06 0 z M38.16 7.66 l0 3.16 l0.8 0 c0.16 0 0.32 -0.14 0.32 -0.32 l0.02 -1.98 c0 -0.4 -0.2 -0.84 -0.48 -0.86 l-0.66 0 z M45.36 20.04 c-1.62 0 -2.94 -1.32 -2.94 -2.94 l0 -11.36 l1.9 0 l0 11.36 c0 0.58 0.46 1.06 1.04 1.06 s1.04 -0.48 1.04 -1.06 l0 -11.36 l1.9 0 l0 11.36 c0 1.62 -1.32 2.94 -2.94 2.94 z M52.040000000000006 20.12 c-1.52 0 -2.74 -1.24 -2.74 -2.74 l0 -2.18 l1.94 0 l0 2.18 c0 0.44 0.36 0.8 0.8 0.8 s0.78 -0.36 0.78 -0.8 l0 -1.9 l-3.52 -4.86 l0 -2.48 c0 -1.52 1.22 -2.76 2.74 -2.76 c1.5 0 2.72 1.24 2.72 2.76 l0 2.16 l-1.94 0 l0 -2.16 c0 -0.46 -0.34 -0.8 -0.78 -0.8 s-0.8 0.34 -0.8 0.8 l0 1.82 l3.52 4.86 l0 2.56 c0 1.5 -1.22 2.74 -2.72 2.74 z M57.660000000000004 5.68 l0 14.24 l-1.9 0 l0 -14.24 l1.9 0 z M63.300000000000004 16.72 l0.08 -11.08 l1.92 0 l-0.12 14.44 l-2.98 0 l-1.62 -11.18 l0 11.18 l-1.92 0 l0 -14.44 l3.1 0 z M70.96000000000001 12.46 l-2.76 0 l0 5.64 l2.78 0 l0 1.9 l-4.68 0 l0 -14.28 l4.68 0 l0 1.9 l-2.78 0 l0 2.94 l2.76 0 l0 1.9 z M74.72000000000001 20.12 c-1.52 0 -2.74 -1.24 -2.74 -2.74 l0 -2.18 l1.94 0 l0 2.18 c0 0.44 0.36 0.8 0.8 0.8 s0.78 -0.36 0.78 -0.8 l0 -1.9 l-3.52 -4.86 l0 -2.48 c0 -1.52 1.22 -2.76 2.74 -2.76 c1.5 0 2.72 1.24 2.72 2.76 l0 2.16 l-1.94 0 l0 -2.16 c0 -0.46 -0.34 -0.8 -0.78 -0.8 s-0.8 0.34 -0.8 0.8 l0 1.82 l3.52 4.86 l0 2.56 c0 1.5 -1.22 2.74 -2.72 2.74 z M81.18 20.12 c-1.52 0 -2.74 -1.24 -2.74 -2.74 l0 -2.18 l1.94 0 l0 2.18 c0 0.44 0.36 0.8 0.8 0.8 s0.78 -0.36 0.78 -0.8 l0 -1.9 l-3.52 -4.86 l0 -2.48 c0 -1.52 1.22 -2.76 2.74 -2.76 c1.5 0 2.72 1.24 2.72 2.76 l0 2.16 l-1.94 0 l0 -2.16 c0 -0.46 -0.34 -0.8 -0.78 -0.8 s-0.8 0.34 -0.8 0.8 l0 1.82 l3.52 4.86 l0 2.56 c0 1.5 -1.22 2.74 -2.72 2.74 z M89.56 12.46 l-2.76 0 l0 5.64 l2.78 0 l0 1.9 l-4.68 0 l0 -14.28 l4.68 0 l0 1.9 l-2.78 0 l0 2.94 l2.76 0 l0 1.9 z M93.32000000000001 20.12 c-1.52 0 -2.74 -1.24 -2.74 -2.74 l0 -2.18 l1.94 0 l0 2.18 c0 0.44 0.36 0.8 0.8 0.8 s0.78 -0.36 0.78 -0.8 l0 -1.9 l-3.52 -4.86 l0 -2.48 c0 -1.52 1.22 -2.76 2.74 -2.76 c1.5 0 2.72 1.24 2.72 2.76 l0 2.16 l-1.94 0 l0 -2.16 c0 -0.46 -0.34 -0.8 -0.78 -0.8 s-0.8 0.34 -0.8 0.8 l0 1.82 l3.52 4.86 l0 2.56 c0 1.5 -1.22 2.74 -2.72 2.74 z M102.34 11.64 l-3.44 1.5 l3.44 2.08 l0 1.98 l-5.3 -3.2 l0 -1.96 l5.3 -2.2 l0 1.8 z M106.78 13.120000000000001 l-3.44 -1.5 l0 -1.8 l5.3 2.2 l0 1.96 l-5.3 3.2 l0 -1.98 z M112.6 20.16 l-0.44 0 c-1.4 0 -2.52 -1.12 -2.52 -2.52 l0 -9.64 c0 -1.4 1.12 -2.54 2.52 -2.54 l0.44 0 c1.4 0 2.52 1.14 2.52 2.54 l0 1.02 l-1.96 0 l0 -1.02 c0 -0.34 -0.24 -0.58 -0.56 -0.58 l-0.44 0 c-0.3 0 -0.58 0.24 -0.58 0.58 l0 9.64 c0 0.3 0.28 0.58 0.58 0.58 l0.44 0 c0.32 0 0.56 -0.28 0.56 -0.58 l0 -5.2 l-1.12 0 l0 -1.94 l3.08 0 l0 7.14 c0 1.4 -1.12 2.52 -2.52 2.52 z M118 18.12 l2.76 0 l0 1.88 l-4.64 0 l0 -14.36 l1.88 0 l0 12.48 z M124.46000000000001 20.02 c-1.5 0 -2.7 -1.22 -2.7 -2.7 l0 -8.98 c0 -1.48 1.2 -2.68 2.7 -2.68 c1.48 0 2.68 1.2 2.68 2.68 l0 8.98 c0 1.48 -1.2 2.7 -2.68 2.7 z M124.46000000000001 7.5600000000000005 c-0.44 0 -0.78 0.36 -0.78 0.78 l0 8.98 c0 0.44 0.34 0.78 0.78 0.78 c0.42 0 0.78 -0.34 0.78 -0.78 l0 -8.98 c0 -0.42 -0.36 -0.78 -0.78 -0.78 z M132.8 11.52 c0.44 0.44 0.72 1.04 0.72 1.7 l0 4.38 c0 1.32 -1.08 2.4 -2.4 2.4 l-2.96 0 l-0.02 -14.24 l2.64 0 c1.46 0.06 2.32 1.46 2.3 2.78 l-0.02 1.98 c0 0.36 -0.1 0.7 -0.26 1 z M131.12 18.08 c0.28 0 0.5 -0.22 0.5 -0.48 l-0.02 -4.38 c0 -0.28 -0.22 -0.48 -0.48 -0.48 l-1.06 0 l0 5.34 l1.06 0 z M130.04000000000002 7.66 l0 3.16 l0.8 0 c0.16 0 0.32 -0.14 0.32 -0.32 l0.02 -1.98 c0 -0.4 -0.2 -0.84 -0.48 -0.86 l-0.66 0 z M139.32 20 l-0.72 -4.94 l-2.02 0 l-0.66 4.94 l-1.92 0 l2.16 -14.3 l2.58 0 l2.5 14.3 l-1.92 0 z M136.84 13.16 l1.48 0 l-0.76 -5.2 z M144.12 18.12 l2.76 0 l0 1.88 l-4.64 0 l0 -14.36 l1.88 0 l0 12.48 z M158.79999999999998 5.68 l0 1.92 l-2.38 0 l0 12.42 l-1.92 0 l0 -12.42 l-2.62 0 l0 -1.92 l6.92 0 z M163.61999999999998 20 l-0.72 -4.94 l-2.02 0 l-0.66 4.94 l-1.92 0 l2.16 -14.3 l2.58 0 l2.5 14.3 l-1.92 0 z M161.14 13.16 l1.48 0 l-0.76 -5.2 z M168.42 18.12 l2.76 0 l0 1.88 l-4.64 0 l0 -14.36 l1.88 0 l0 12.48 z M176.83999999999997 12.46 l-2.76 0 l0 5.64 l2.78 0 l0 1.9 l-4.68 0 l0 -14.28 l4.68 0 l0 1.9 l-2.78 0 l0 2.94 l2.76 0 l0 1.9 z M182.49999999999997 16.72 l0.08 -11.08 l1.92 0 l-0.12 14.44 l-2.98 0 l-1.62 -11.18 l0 11.18 l-1.92 0 l0 -14.44 l3.1 0 z M192.42 5.68 l0 1.92 l-2.38 0 l0 12.42 l-1.92 0 l0 -12.42 l-2.62 0 l0 -1.92 l6.92 0 z"/></g>
			</g>
		</svg>
	